<svg xmlns="http://www.w3.org/2000/svg" xmlns:xlink="http://www.w3.org/1999/xlink" width="72.085" height="71.96" viewBox="0 0 72.085 71.96">
    <defs>
        <clipPath id="clip-path">
            <rect id="Rectangle_33" data-name="Rectangle 33" width="26.93" height="18.636" fill="#fff"/>
        </clipPath>
    </defs>
    <path id="blob4" d="M44.758,16.972c5.907,9.165,10.224,20.2,6.558,26.967-3.707,6.8-15.479,9.288-25.133,8.066C16.528,50.823,8.952,45.894,4.43,38.643-.132,31.392-1.639,21.779,2.149,13.8,5.937,5.852,15.021-.462,23.25.027,31.519.475,38.892,7.766,44.758,16.972Z" transform="translate(0 27.127) rotate(-31)" fill="#d2dec6"/>
    <g id="Groupe_1737" data-name="Groupe 1737" transform="translate(23.157 28.292)">
        <g id="Groupe_16" data-name="Groupe 16" transform="translate(0 0)" clip-path="url(#clip-path)">
            <path id="Tracé_5142" data-name="Tracé 5142" d="M13.465,30.871A18,18,0,0,1,0,24.82v7.639a3.58,3.58,0,0,0,3.581,3.58H23.35a3.58,3.58,0,0,0,3.581-3.58V24.82a18,18,0,0,1-13.465,6.051" transform="translate(0 -17.404)" fill="#fff"/>
            <path id="Tracé_5143" data-name="Tracé 5143" d="M13.535,10.926A15.506,15.506,0,0,0,26.97,3.14,3.579,3.579,0,0,0,23.42,0H3.651A3.579,3.579,0,0,0,.1,3.14a15.506,15.506,0,0,0,13.435,7.786" transform="translate(-0.07 0)" fill="#fff"/>
        </g>
    </g>
</svg>
