<svg xmlns="http://www.w3.org/2000/svg" width="44.714" height="24.369" viewBox="0 0 44.714 24.369">
    <g id="Groupe_51" data-name="Groupe 51" transform="translate(-8.658 -16.551)">
        <g id="Groupe_1733" data-name="Groupe 1733">
            <path id="Tracé_2491" data-name="Tracé 2491" d="M20.418,17.466A11.467,11.467,0,0,0,8.658,29.193,11.467,11.467,0,0,0,20.418,40.92a11.467,11.467,0,0,0,11.76-11.727A11.467,11.467,0,0,0,20.418,17.466Zm0,20.268c-4.847,0-8.3-3.525-8.3-8.541s3.456-8.541,8.3-8.541,8.3,3.525,8.3,8.541S25.265,37.734,20.418,37.734Z" fill="#161615"/>
            <path id="Tracé_2492" data-name="Tracé 2492" d="M42.662,16.551,31.41,40.479h3.728l7.388-16.37,7.117,16.37h3.728Z" fill="#161615"/>
        </g>
        <path id="Tracé_2493" data-name="Tracé 2493" d="M43.959,38.795h-3.7l-.792,1.684h5.717l-.754-1.684Z" fill="#161615"/>
    </g>
</svg>
