<svg id="Groupe_17" data-name="Groupe 17" xmlns="http://www.w3.org/2000/svg" xmlns:xlink="http://www.w3.org/1999/xlink" width="35.262" height="24.402" viewBox="0 0 35.262 24.402">
    <defs>
        <clipPath id="clip-path">
            <rect id="Rectangle_33" data-name="Rectangle 33" width="35.262" height="24.402" fill="#fff"/>
        </clipPath>
    </defs>
    <g id="Groupe_16" data-name="Groupe 16" transform="translate(0 0)" clip-path="url(#clip-path)">
        <path id="Tracé_5142" data-name="Tracé 5142" d="M17.631,32.744A23.567,23.567,0,0,1,0,24.82v10a4.688,4.688,0,0,0,4.688,4.688H30.574a4.688,4.688,0,0,0,4.688-4.688v-10a23.566,23.566,0,0,1-17.631,7.924" transform="translate(0 -15.11)" fill="#fff"/>
        <path id="Tracé_5143" data-name="Tracé 5143" d="M17.692,14.307A20.3,20.3,0,0,0,35.284,4.112,4.686,4.686,0,0,0,30.635,0H4.749A4.686,4.686,0,0,0,.1,4.112,20.3,20.3,0,0,0,17.692,14.307" transform="translate(-0.061 0)" fill="#fff"/>
    </g>
</svg>
