<svg xmlns="http://www.w3.org/2000/svg" xmlns:xlink="http://www.w3.org/1999/xlink" width="17.422" height="17.422" viewBox="0 0 17.422 17.422">
  <defs>
    <clipPath id="clip-path">
      <rect id="Rectangle_41" data-name="Rectangle 41" width="17.422" height="17.422" fill="#fff"/>
    </clipPath>
  </defs>
  <g id="Groupe_26" data-name="Groupe 26" clip-path="url(#clip-path)">
    <path id="Tracé_8082" data-name="Tracé 8082" d="M0,2.052A2.049,2.049,0,0,1,2.047,0H4.794A2.041,2.041,0,0,1,6.827,1.81,9.965,9.965,0,0,0,7.2,3.6a2.044,2.044,0,0,1-.505,2.049L5.58,6.766a12.833,12.833,0,0,0,5.076,5.076l1.114-1.114a2.043,2.043,0,0,1,2.049-.5,10.013,10.013,0,0,0,1.792.371,2.041,2.041,0,0,1,1.811,2.033v2.748a2.049,2.049,0,0,1-2.24,2.038A16.658,16.658,0,0,1,9.524,15.86a16.776,16.776,0,0,1-4.665-3.3A16.776,16.776,0,0,1,1.562,7.9,16.671,16.671,0,0,1,.009,2.24C0,2.177,0,2.114,0,2.052" transform="translate(0 0)" fill="#fff"/>
  </g>
</svg>
