<svg xmlns="http://www.w3.org/2000/svg" width="21.995" height="23.603" viewBox="0 0 21.995 23.603">
    <g id="user" transform="translate(-17.44)">
        <g id="Groupe_32" data-name="Groupe 32" transform="translate(17.44 13.294)">
            <g id="Groupe_31" data-name="Groupe 31">
                <path id="Tracé_5104" data-name="Tracé 5104" d="M28.437,288.389c-7.092,0-11,3.355-11,9.447a.861.861,0,0,0,.861.861H38.573a.861.861,0,0,0,.861-.861C39.435,291.744,35.529,288.389,28.437,288.389Zm-9.243,8.585c.339-4.555,3.444-6.863,9.243-6.863s8.9,2.308,9.244,6.863Z" transform="translate(-17.44 -288.389)"/>
            </g>
        </g>
        <g id="Groupe_34" data-name="Groupe 34" transform="translate(22.723)">
            <g id="Groupe_33" data-name="Groupe 33">
                <path id="Tracé_5105" data-name="Tracé 5105" d="M137.763,0a5.646,5.646,0,0,0-5.714,5.829,5.733,5.733,0,1,0,11.428,0A5.646,5.646,0,0,0,137.763,0Zm0,10.308a4.261,4.261,0,0,1-3.991-4.479,3.917,3.917,0,0,1,3.991-4.106,3.961,3.961,0,0,1,3.991,4.106A4.261,4.261,0,0,1,137.763,10.308Z" transform="translate(-132.049)"/>
            </g>
        </g>
    </g>
</svg>
